<svg width="16" height="16" viewBox="0 0 16 16" fill="none" xmlns="http://www.w3.org/2000/svg">
<g clip-path="url(#clip0_1_23)">
<g filter="url(#filter0_i_1_23)">
<circle cx="8" cy="8" r="8" fill="#0072B2"/>
</g>
<circle cx="8" cy="8" r="7.5" stroke="white"/>
<path d="M6.81599 3.00083C6.46377 3.00083 6.15225 3.18832 5.93423 3.42996C5.71661 3.67244 5.55743 3.97575 5.41839 4.30281C5.20319 4.80693 5.05166 5.36689 4.91465 5.89143C4.47659 6.02308 4.10462 6.18723 3.8064 6.38597C3.4566 6.61845 3.16362 6.94092 3.16362 7.37547C3.16362 7.75377 3.38648 8.05541 3.66737 8.27373C3.90634 8.45955 4.20094 8.6137 4.54913 8.74244C4.56847 8.83993 4.5999 8.93826 4.63698 9.02991C4.29725 9.22865 3.75925 9.61195 3.23938 10.3448L3 10.6964L3.34013 10.9435L4.66196 11.8809L4.41049 12.4017L4.12034 13H11.8781L11.5879 12.4009L11.3368 11.8801L12.6599 10.9427L13 10.6956L12.761 10.3431C12.2412 9.60987 11.7027 9.22656 11.3626 9.02825C11.4001 8.93575 11.4311 8.83785 11.4513 8.74077C11.7991 8.61245 12.0937 8.45829 12.3326 8.27248C12.6139 8.05416 12.8364 7.75252 12.8364 7.37422C12.8364 6.93884 12.5446 6.6172 12.1944 6.38472C11.8954 6.18598 11.5238 6.02225 11.0862 5.88976C10.9358 5.34689 10.769 4.77735 10.5574 4.27573C10.4204 3.95284 10.2693 3.65495 10.0537 3.41663C9.83767 3.17915 9.53139 3 9.18441 3C8.94946 3 8.77174 3.06749 8.57992 3.11666C8.38849 3.16665 8.19384 3.20832 8.00081 3.20832C7.61393 3.20832 7.28992 3 6.8172 3L6.81599 3.00083ZM6.81599 3.8341C6.89861 3.8341 7.3947 4.04241 7.9996 4.04241C8.30185 4.04241 8.57185 3.97992 8.78061 3.92576C8.98936 3.87076 9.14855 3.8341 9.18361 3.8341C9.2763 3.8341 9.34601 3.86409 9.46047 3.99033C9.57492 4.11657 9.71032 4.34155 9.82558 4.61528C10.0452 5.13316 10.2125 5.84018 10.393 6.49013C10.393 6.48929 10.4148 6.47013 10.3555 6.50262C10.2548 6.5597 10.0444 6.63303 9.78851 6.67261C9.2767 6.75177 8.57951 6.75052 8.0004 6.75052C7.42412 6.75052 6.72532 6.74219 6.2123 6.65886C5.95599 6.61845 5.74885 6.5472 5.64568 6.49013C5.61425 6.47263 5.60256 6.47929 5.59531 6.47763V6.46388C5.59692 6.45971 5.59531 6.45554 5.59531 6.45138L5.60861 6.43805C5.63861 6.382 5.65571 6.31955 5.65858 6.25556V6.24306C5.80366 5.68978 5.96486 5.10357 6.16233 4.64111C6.28041 4.36322 6.40816 4.13616 6.52744 4.00367C6.64713 3.87034 6.72894 3.8341 6.8176 3.8341H6.81599ZM4.85097 6.78968C4.94205 6.9855 5.10244 7.14132 5.26687 7.23215C5.51068 7.36755 5.79318 7.43088 6.09704 7.47963C6.70557 7.57712 7.41646 7.58378 7.99919 7.58378C8.5783 7.58378 9.29121 7.5867 9.90135 7.49213C10.2052 7.44546 10.4857 7.3838 10.7315 7.24548C10.8968 7.15257 11.0567 6.988 11.1466 6.78968C11.3965 6.88134 11.6052 6.97884 11.7511 7.07591C11.9848 7.23256 12.0292 7.3488 12.0292 7.37589C12.0292 7.40088 12.0078 7.48004 11.8398 7.61087C11.6717 7.74169 11.3816 7.89168 11.0096 8.01417C10.2628 8.25998 9.18804 8.4183 7.99919 8.4183C6.81035 8.4183 5.73434 8.25998 4.9888 8.01417C4.61602 7.89209 4.32586 7.74169 4.15862 7.61087C3.98976 7.47963 3.96961 7.40047 3.96961 7.37547C3.96961 7.34797 4.00105 7.24423 4.23398 7.08883C4.38027 6.99175 4.59628 6.88468 4.85097 6.78968ZM5.89635 9.06866C6.02934 9.09074 6.16072 9.12782 6.29935 9.14615C6.35174 9.51154 6.62819 9.83443 7.06907 9.86276C7.40759 9.88359 7.79044 9.71777 7.82389 9.25031C7.88434 9.25115 7.93995 9.25031 8.0004 9.25031C8.06085 9.25031 8.11727 9.25115 8.17772 9.25031C8.21077 9.71777 8.59362 9.88359 8.93294 9.86276C9.37302 9.83443 9.64867 9.51154 9.70106 9.14615C9.84009 9.12782 9.97107 9.09074 10.1041 9.06783L10.0658 9.32822C9.94165 10.0127 9.64504 10.6489 9.27186 11.0864C8.8999 11.5239 8.46184 11.7572 8.0004 11.7501C7.52648 11.743 7.09769 11.5068 6.72854 11.0731C6.35859 10.6398 6.06762 10.0161 5.93463 9.32822L5.89715 9.06783L5.89635 9.06866ZM10.8206 9.66611C10.9705 9.75694 11.3646 10.0244 11.816 10.5385L10.5941 11.4105L10.3039 11.6064L10.4555 11.9313L10.5683 12.1659H9.29725C9.5107 12.0135 9.70508 11.8344 9.87596 11.6326C10.3193 11.1118 10.6175 10.4285 10.7827 9.69236C10.7964 9.68403 10.8069 9.67444 10.8206 9.66653V9.66611ZM5.16652 9.67861C5.18183 9.68861 5.19997 9.69611 5.21649 9.70527C5.38897 10.4323 5.68598 11.1064 6.12324 11.6189C6.30459 11.8313 6.51535 12.0147 6.73982 12.1659H5.43008L5.54373 11.9313L5.69485 11.6064L5.4063 11.4105L4.18441 10.5385C4.61159 10.0519 4.99968 9.7836 5.16773 9.67903L5.16652 9.67861Z" fill="white"/>
</g>
<defs>
<filter id="filter0_i_1_23" x="0" y="0" width="16" height="16" filterUnits="userSpaceOnUse" color-interpolation-filters="sRGB">
<feFlood flood-opacity="0" result="BackgroundImageFix"/>
<feBlend mode="normal" in="SourceGraphic" in2="BackgroundImageFix" result="shape"/>
<feColorMatrix in="SourceAlpha" type="matrix" values="0 0 0 0 0 0 0 0 0 0 0 0 0 0 0 0 0 0 127 0" result="hardAlpha"/>
<feMorphology radius="16" operator="erode" in="SourceAlpha" result="effect1_innerShadow_1_23"/>
<feOffset/>
<feComposite in2="hardAlpha" operator="arithmetic" k2="-1" k3="1"/>
<feColorMatrix type="matrix" values="0 0 0 0 0 0 0 0 0 0 0 0 0 0 0 0 0 0 0.25 0"/>
<feBlend mode="normal" in2="shape" result="effect1_innerShadow_1_23"/>
</filter>
<clipPath id="clip0_1_23">
<rect width="16" height="16" fill="white"/>
</clipPath>
</defs>
</svg>
