<svg width="512" height="512" viewBox="0 0 512 512" fill="none" xmlns="http://www.w3.org/2000/svg">
<g clip-path="url(#clip0_1_3)">
<g clip-path="url(#clip1_1_3)">
<circle cx="256" cy="256" r="244" fill="#0072B2" stroke="white" stroke-width="24"/>
<g filter="url(#filter0_d_1_3)">
<path d="M218.204 104.025C207.109 104.025 197.296 109.725 190.428 117.071C183.573 124.442 178.559 133.663 174.179 143.605C167.401 158.931 162.627 175.953 158.311 191.899C144.512 195.902 132.795 200.892 123.402 206.933C112.383 214.001 103.154 223.804 103.154 237.014C103.154 248.515 110.174 257.685 119.022 264.321C126.55 269.97 135.829 274.656 146.797 278.57C147.407 281.534 148.397 284.523 149.565 287.309C138.863 293.351 121.916 305.003 105.541 327.282L98 337.972L108.714 345.483L150.352 373.98L142.431 389.812L133.291 408H377.659L368.519 389.787L360.61 373.955L402.286 345.457L413 337.947L405.472 327.231C389.096 304.94 372.137 293.288 361.422 287.259C362.603 284.447 363.581 281.471 364.215 278.519C375.171 274.618 384.45 269.932 391.978 264.283C400.839 257.647 407.846 248.477 407.846 236.976C407.846 223.741 398.655 213.963 387.624 206.895C378.205 200.854 366.5 195.876 352.714 191.849C347.979 175.345 342.724 158.031 336.059 142.782C331.743 132.966 326.982 123.91 320.191 116.666C313.387 109.446 303.739 104 292.809 104C285.408 104 279.81 106.052 273.767 107.546C267.737 109.066 261.606 110.333 255.525 110.333C243.339 110.333 233.132 104 218.242 104L218.204 104.025ZM218.204 129.357C220.806 129.357 236.433 135.689 255.487 135.689C265.008 135.689 273.513 133.79 280.089 132.143C286.665 130.471 291.679 129.357 292.784 129.357C295.703 129.357 297.899 130.268 301.505 134.106C305.11 137.944 309.375 144.783 313.006 153.105C319.924 168.848 325.193 190.341 330.88 210.1C330.88 210.074 331.565 209.492 329.699 210.48C326.525 212.215 319.899 214.444 311.838 215.647C295.716 218.054 273.755 218.016 255.513 218.016C237.36 218.016 215.347 217.763 199.187 215.229C191.114 214.001 184.589 211.835 181.339 210.1C180.349 209.568 179.981 209.771 179.752 209.72V209.302C179.803 209.175 179.752 209.049 179.752 208.922L180.171 208.517C181.116 206.813 181.655 204.914 181.745 202.969V202.589C186.315 185.769 191.393 167.949 197.613 153.89C201.333 145.442 205.357 138.539 209.114 134.511C212.885 130.458 215.462 129.357 218.255 129.357H218.204ZM156.306 219.206C159.175 225.159 164.227 229.896 169.406 232.657C177.086 236.774 185.985 238.699 195.557 240.181C214.725 243.144 237.118 243.347 255.475 243.347C273.717 243.347 296.173 243.436 315.392 240.561C324.964 239.142 333.799 237.268 341.543 233.063C346.748 230.238 351.787 225.235 354.618 219.206C362.489 221.993 369.065 224.957 373.66 227.908C381.023 232.67 382.419 236.204 382.419 237.027C382.419 237.787 381.746 240.193 376.453 244.17C371.159 248.147 362.019 252.707 350.302 256.431C326.779 263.903 292.923 268.716 255.475 268.716C218.026 268.716 184.132 263.903 160.647 256.431C148.905 252.72 139.765 248.147 134.497 244.17C129.178 240.181 128.543 237.774 128.543 237.014C128.543 236.178 129.533 233.025 136.87 228.3C141.478 225.349 148.283 222.094 156.306 219.206ZM189.235 288.487C193.424 289.159 197.563 290.286 201.929 290.843C203.58 301.951 212.288 311.767 226.176 312.628C236.839 313.261 248.899 308.22 249.953 294.009C251.857 294.035 253.609 294.009 255.513 294.009C257.417 294.009 259.194 294.035 261.098 294.009C262.139 308.22 274.199 313.261 284.888 312.628C298.75 311.767 307.433 301.951 309.083 290.843C313.463 290.286 317.589 289.159 321.778 288.462L320.572 296.378C316.662 317.188 307.319 336.528 295.564 349.827C283.847 363.126 270.048 370.218 255.513 370.003C240.584 369.788 227.077 362.606 215.449 349.422C203.796 336.249 194.63 317.289 190.441 296.378L189.26 288.462L189.235 288.487ZM344.348 306.65C349.071 309.411 361.486 317.542 375.704 333.172L337.214 359.681L328.074 365.634L332.847 375.513L336.402 382.643H296.363C303.087 378.011 309.21 372.565 314.593 366.431C328.557 350.599 337.95 329.828 343.155 307.448C343.587 307.194 343.917 306.903 344.348 306.662V306.65ZM166.245 307.03C166.728 307.334 167.299 307.562 167.819 307.84C173.253 329.942 182.608 350.435 196.382 366.013C202.094 372.473 208.734 378.046 215.804 382.643H174.548L178.127 375.513L182.888 365.634L173.799 359.681L135.309 333.172C148.765 318.378 160.99 310.221 166.283 307.042L166.245 307.03Z" fill="white"/>
</g>
</g>
</g>
<defs>
<filter id="filter0_d_1_3" x="98" y="104" width="320.3" height="309.3" filterUnits="userSpaceOnUse" color-interpolation-filters="sRGB">
<feFlood flood-opacity="0" result="BackgroundImageFix"/>
<feColorMatrix in="SourceAlpha" type="matrix" values="0 0 0 0 0 0 0 0 0 0 0 0 0 0 0 0 0 0 127 0" result="hardAlpha"/>
<feOffset dx="5" dy="5"/>
<feGaussianBlur stdDeviation="0.15"/>
<feComposite in2="hardAlpha" operator="out"/>
<feColorMatrix type="matrix" values="0 0 0 0 0 0 0 0 0 0 0 0 0 0 0 0 0 0 0.25 0"/>
<feBlend mode="normal" in2="BackgroundImageFix" result="effect1_dropShadow_1_3"/>
<feBlend mode="normal" in="SourceGraphic" in2="effect1_dropShadow_1_3" result="shape"/>
</filter>
<clipPath id="clip0_1_3">
<rect width="512" height="512" fill="white"/>
</clipPath>
<clipPath id="clip1_1_3">
<rect width="512" height="512" fill="white"/>
</clipPath>
</defs>
</svg>
